<?xml version="1.0" encoding="utf-8"?>
<!-- Generator: Adobe Illustrator 21.1.0, SVG Export Plug-In . SVG Version: 6.00 Build 0)  -->
<!DOCTYPE svg PUBLIC "-//W3C//DTD SVG 1.1//EN" "http://www.w3.org/Graphics/SVG/1.1/DTD/svg11.dtd">
<svg version="1.1" id="Layer_1" xmlns="http://www.w3.org/2000/svg" xmlns:xlink="http://www.w3.org/1999/xlink" x="0px" y="0px"
	 viewBox="0 0 64 64" style="enable-background:new 0 0 64 64;" xml:space="preserve">
<style type="text/css">
	.st0{fill:#FFFFFF;}
</style>
<g>
	<path class="st0" d="M0,32c0,17.6,14.4,32,32,32c17.6,0,32-14.4,32-32S49.6,0,32,0C14.4,0,0,14.4,0,32z M4,32C4,16.6,16.6,4,32,4
		s28,12.6,28,28S47.4,60,32,60S4,47.4,4,32z"/>
	<polygon class="st0" points="30.6,22.4 33.4,19.6 45.8,32 33.4,44.4 30.6,41.6 38.2,34 16.7,34 16.7,30 38.2,30 	"/>
</g>
</svg>
