<?xml version="1.0" encoding="utf-8"?>
<!-- Generator: Adobe Illustrator 23.0.2, SVG Export Plug-In . SVG Version: 6.00 Build 0)  -->
<svg width="125px" height="57px" version="1.1" id="Layer_1" xmlns="http://www.w3.org/2000/svg" xmlns:xlink="http://www.w3.org/1999/xlink" x="0px" y="0px"
	 viewBox="0 0 170 78" style="enable-background:new 0 0 170 78;" xml:space="preserve">
<style type="text/css">
	.st0{fill:#FFFFFF;}
</style>
<g>
	<path class="st0" d="M0.8,1.6h7.3v50.6h24.3v6H0.8V1.6z"/>
	<path class="st0" d="M75.9,37.5c0,15-10.4,21.6-20.3,21.6C44.5,59.1,36,51,36,38.2c0-13.6,9-21.6,20.2-21.6
		C68,16.6,75.9,25.2,75.9,37.5z M43.6,37.9c0,9,5.2,15.7,12.3,15.7c7,0,12.3-6.6,12.3-15.8c0-6.9-3.5-15.7-12.2-15.7
		C47.4,22.2,43.6,30.2,43.6,37.9z"/>
	<path class="st0" d="M120.3,17.6c-0.1,2.9-0.3,6.2-0.3,11.2v23.7c0,9.4-1.8,15-5.8,18.7c-3.9,3.6-9.7,4.9-14.9,4.9
		c-4.9,0-10.2-1.1-13.6-3.4l1.8-5.6c2.7,1.7,6.9,3.2,11.9,3.2c7.6,0,13.2-3.9,13.2-14.2v-4.9h-0.1c-2.2,3.8-6.6,6.9-12.9,6.9
		c-10.1,0-17.4-8.6-17.4-19.9c0-13.7,9-21.6,18.4-21.6c7,0,10.9,3.6,12.8,7h0.1l0.3-6.2h6.5V17.6z M112.8,33.6
		c0-1.3-0.1-2.4-0.4-3.4c-1.4-4.3-4.9-7.9-10.4-7.9c-7,0-12.1,6-12.1,15.4c0,8,4.1,14.6,12.1,14.6c4.5,0,8.7-2.8,10.2-7.6
		c0.4-1.3,0.6-2.7,0.6-3.9C112.8,40.8,112.8,33.6,112.8,33.6z"/>
	<path class="st0" d="M169.2,37.5c0,15-10.4,21.6-20.3,21.6c-11.1,0-19.5-8.1-19.5-20.9c0-13.6,9-21.6,20.2-21.6
		C161.3,16.6,169.2,25.2,169.2,37.5z M136.9,37.9c0,9,5.2,15.7,12.3,15.7c7,0,12.3-6.6,12.3-15.8c0-6.9-3.5-15.7-12.2-15.7
		C140.7,22.2,136.9,30.2,136.9,37.9z"/>
</g>
</svg>
